<svg xmlns="http://www.w3.org/2000/svg" width="19.667" height="19.667" viewBox="0 0 19.667 19.667"><defs><style>.a{fill:#8395a7;}</style></defs><path class="a" d="M11.908,19.667h-7.3A4.615,4.615,0,0,1,0,15.057V4.609A4.615,4.615,0,0,1,4.609,0H15.057a4.615,4.615,0,0,1,4.609,4.609v7.356a.768.768,0,0,1-1.536,0V4.609a3.076,3.076,0,0,0-3.073-3.073H4.609A3.076,3.076,0,0,0,1.536,4.609V15.057A3.076,3.076,0,0,0,4.609,18.13h7.3a.768.768,0,0,1,0,1.536ZM15.825,4.84a.768.768,0,0,0-.768-.768H8.028a.768.768,0,1,0,0,1.536h7.029A.768.768,0,0,0,15.825,4.84Zm0,3.073a.768.768,0,0,0-.768-.768H4.609a.768.768,0,1,0,0,1.536H15.057A.768.768,0,0,0,15.825,7.913ZM8.143,10.986a.768.768,0,0,0-.768-.768H4.609a.768.768,0,1,0,0,1.536H7.375A.768.768,0,0,0,8.143,10.986Zm-4.3-6.223A.96.96,0,1,0,4.8,3.8.96.96,0,0,0,3.841,4.763Zm15,14.082a2.807,2.807,0,0,0,0-3.965l-2.693-2.693a5.538,5.538,0,0,0-2.84-1.52l-2.177-.435a.768.768,0,0,0-.9.9l.435,2.177a5.539,5.539,0,0,0,1.519,2.84l2.693,2.693a2.8,2.8,0,0,0,3.966,0Zm-5.834-6.671a4.006,4.006,0,0,1,2.054,1.1l2.693,2.693a1.268,1.268,0,1,1-1.793,1.793l-2.693-2.693a4.007,4.007,0,0,1-1.1-2.054l-.209-1.047Z"/></svg>