<svg xmlns="http://www.w3.org/2000/svg" width="19.08" height="19.08" viewBox="0 0 19.08 19.08"><defs><style>.a{fill:#8395a7;}</style></defs><path class="a" d="M9.54,4.77C8.564,4.77,0,4.7,0,2.385S8.564,0,9.54,0s9.54.067,9.54,2.385S10.516,4.77,9.54,4.77ZM1.262,2.385c.582.452,3.375,1.192,8.277,1.192s7.7-.741,8.277-1.192c-.582-.452-3.375-1.192-8.277-1.192s-7.7.741-8.277,1.192Zm16.646.092h.008Z"/><path class="a" d="M9.54,11.231c-.976,0-9.54-.067-9.54-2.385a.6.6,0,0,1,1.189-.068c.367.44,3.19,1.261,8.351,1.261s7.984-.821,8.351-1.261a.6.6,0,0,1,1.189.068c0,2.318-8.564,2.385-9.54,2.385Zm8.347-2.386Zm-16.695,0Z" transform="translate(0 -1.691)"/><path class="a" d="M9.54,17.231c-.976,0-9.54-.067-9.54-2.385a.6.6,0,0,1,1.189-.068c.367.44,3.19,1.261,8.351,1.261s7.984-.821,8.351-1.261a.6.6,0,0,1,1.189.068c0,2.318-8.564,2.385-9.54,2.385Zm8.347-2.386Zm-16.695,0Z" transform="translate(0 -2.921)"/><path class="a" d="M9.54,19.541c-.976,0-9.54-.067-9.54-2.385V2.846a.6.6,0,1,1,1.192,0V17.092c.382.442,3.2,1.257,8.347,1.257s7.965-.815,8.347-1.257V2.846a.6.6,0,1,1,1.192,0v14.31C19.08,19.474,10.516,19.541,9.54,19.541Z" transform="translate(0 -0.461)"/><circle class="a" cx="1" cy="1" r="1" transform="translate(3 10.08)"/><circle class="a" cx="1" cy="1" r="1" transform="translate(3 5.08)"/><circle class="a" cx="1" cy="1" r="1" transform="translate(3 15.08)"/></svg>