<svg xmlns="http://www.w3.org/2000/svg" width="18.2" height="18.2" viewBox="0 0 18.2 18.2"><defs><style>.a{fill:#8395a7;}</style></defs><path class="a" d="M18.2,12.146V2.994a2.994,2.994,0,0,0-5.987,0v9.153a.542.542,0,0,0,.046.228l2.125,4.759H1.607a.543.543,0,0,1,0-1.087H7.88a1.606,1.606,0,0,0,0-3.211H4.536a.533.533,0,1,0,0,1.066H7.88a.539.539,0,0,1,0,1.078H1.607a1.61,1.61,0,0,0,0,3.22h13.6a.532.532,0,0,0,.491-.326l2.456-5.5a.541.541,0,0,0,.046-.228Zm-1.871,1.7H14.085l-.516-1.155h3.277Zm-1.123,2.514-.646-1.447h1.293Zm-.533-12.4v7.667H13.28V3.957Zm2.46,0v7.667H15.741V3.957ZM15.208,1.066a1.93,1.93,0,0,1,1.924,1.824H13.283A1.93,1.93,0,0,1,15.208,1.066Z" transform="translate(-0.001)"/></svg>