<svg xmlns="http://www.w3.org/2000/svg" width="53.5" height="53.5" viewBox="0 0 53.5 53.5"><defs><style>.a{fill:#8395a7;}</style></defs><g transform="translate(-249.238 -156.68)"><g transform="translate(249.238 156.68)"><path class="a" d="M299.7,192.851a2.041,2.041,0,0,0,2.04-2.042V169.175a8.173,8.173,0,0,0-8.163-8.163h-2.653v-2.04a2.041,2.041,0,1,0-4.082,0v2.04h-9.286v-2.04a2.041,2.041,0,1,0-4.082,0v2.04h-9.185v-2.04a2.041,2.041,0,1,0-4.082,0v2.04h-2.552a8.173,8.173,0,0,0-8.163,8.163v31.839a8.172,8.172,0,0,0,8.163,8.163h35.921a8.172,8.172,0,0,0,8.163-8.163,2.041,2.041,0,0,0-4.082,0,4.086,4.086,0,0,1-4.082,4.082H257.651a4.086,4.086,0,0,1-4.082-4.082V169.175a4.087,4.087,0,0,1,4.082-4.082H260.2v2.042a2.041,2.041,0,0,0,4.082,0v-2.042h9.185v2.042a2.041,2.041,0,0,0,4.082,0v-2.042h9.286v2.042a2.041,2.041,0,0,0,4.082,0v-2.042h2.653a4.087,4.087,0,0,1,4.082,4.082v21.634A2.043,2.043,0,0,0,299.7,192.851Z" transform="translate(-248.862 -156.304)"/><path class="a" d="M294.049,210.18H257.927a8.7,8.7,0,0,1-8.689-8.689V169.474a8.7,8.7,0,0,1,8.689-8.689h2.086v-1.571a2.532,2.532,0,1,1,5.065,0v1.571h8.274v-1.571a2.533,2.533,0,1,1,5.067,0v1.571h8.376v-1.571a2.533,2.533,0,1,1,5.067,0v1.571h2.188a8.7,8.7,0,0,1,8.689,8.689v21.755a2.532,2.532,0,1,1-5.065,0V169.474a3.63,3.63,0,0,0-3.624-3.624h-2.188v1.573a2.533,2.533,0,0,1-5.067,0v-1.573h-8.376v1.573a2.533,2.533,0,0,1-5.067,0v-1.573h-8.274v1.573a2.532,2.532,0,0,1-5.065,0v-1.573h-2.086a3.63,3.63,0,0,0-3.624,3.624v32.017a3.63,3.63,0,0,0,3.624,3.624h36.122a3.63,3.63,0,0,0,3.624-3.624,2.532,2.532,0,0,1,5.065,0A8.7,8.7,0,0,1,294.049,210.18Zm-36.122-48.435a7.737,7.737,0,0,0-7.729,7.729v32.017a7.737,7.737,0,0,0,7.729,7.729h36.122a7.737,7.737,0,0,0,7.729-7.729,1.572,1.572,0,0,0-3.144,0,4.59,4.59,0,0,1-4.585,4.585H257.927a4.59,4.59,0,0,1-4.585-4.585V169.474a4.59,4.59,0,0,1,4.585-4.585h3.046v2.533a1.572,1.572,0,0,0,3.144,0v-2.533h10.195v2.533a1.573,1.573,0,0,0,3.146,0v-2.533h10.3v2.533a1.573,1.573,0,0,0,3.146,0v-2.533h3.148a4.59,4.59,0,0,1,4.585,4.585v21.755a1.572,1.572,0,1,0,3.144,0V169.474a7.737,7.737,0,0,0-7.729-7.729H290.9v-2.531a1.573,1.573,0,0,0-3.146,0v2.531h-10.3v-2.531a1.573,1.573,0,0,0-3.146,0v2.531H264.117v-2.531a1.572,1.572,0,1,0-3.144,0v2.531Z" transform="translate(-249.238 -156.68)"/></g></g></svg>