<svg xmlns="http://www.w3.org/2000/svg" width="20.422" height="20.422" viewBox="0 0 20.422 20.422"><defs><style>.a{fill:#fff;}</style></defs><path class="a" d="M7.871,0H1.489A1.491,1.491,0,0,0,0,1.489V5.318A1.491,1.491,0,0,0,1.489,6.807H7.871A1.491,1.491,0,0,0,9.36,5.318V1.489A1.491,1.491,0,0,0,7.871,0Zm.213,5.318a.213.213,0,0,1-.213.213H1.489a.213.213,0,0,1-.213-.213V1.489a.213.213,0,0,1,.213-.213H7.871a.213.213,0,0,1,.213.213Z"/><path class="a" d="M7.871,213.332H1.489A1.491,1.491,0,0,0,0,214.821v8.935a1.491,1.491,0,0,0,1.489,1.489H7.871a1.491,1.491,0,0,0,1.489-1.489v-8.935A1.491,1.491,0,0,0,7.871,213.332Zm.213,10.424a.213.213,0,0,1-.213.213H1.489a.213.213,0,0,1-.213-.213v-8.935a.213.213,0,0,1,.213-.213H7.871a.213.213,0,0,1,.213.213Z" transform="translate(0 -204.823)"/><path class="a" d="M285.2,341.332h-6.382a1.491,1.491,0,0,0-1.489,1.489v3.829a1.491,1.491,0,0,0,1.489,1.489H285.2a1.491,1.491,0,0,0,1.489-1.489v-3.829A1.491,1.491,0,0,0,285.2,341.332Zm.213,5.318a.213.213,0,0,1-.213.213h-6.382a.213.213,0,0,1-.213-.213v-3.829a.213.213,0,0,1,.213-.213H285.2a.213.213,0,0,1,.213.213Z" transform="translate(-266.27 -327.717)"/><path class="a" d="M285.2,0h-6.382a1.491,1.491,0,0,0-1.489,1.489v8.935a1.491,1.491,0,0,0,1.489,1.489H285.2a1.491,1.491,0,0,0,1.489-1.489V1.489A1.491,1.491,0,0,0,285.2,0Zm.213,10.424a.213.213,0,0,1-.213.213h-6.382a.213.213,0,0,1-.213-.213V1.489a.213.213,0,0,1,.213-.213H285.2a.213.213,0,0,1,.213.213Z" transform="translate(-266.27)"/></svg>