<svg xmlns="http://www.w3.org/2000/svg" width="20.08" height="18.004" viewBox="0 0 20.08 18.004"><defs><style>.a{fill:#8395a7;}</style></defs><g transform="translate(-90.23 -151.354)"><path class="a" d="M93.173,169.274H91.442a1.214,1.214,0,0,0-1.212,1.212v3.75a.636.636,0,0,0,.635.635H93.75a.636.636,0,0,0,.634-.635v-3.751A1.214,1.214,0,0,0,93.173,169.274ZM91.5,173.6v-3.058h1.616V173.6Z" transform="translate(0 -5.513)"/><path class="a" d="M100.84,163.44H99.109a1.215,1.215,0,0,0-1.212,1.212v7.79a.636.636,0,0,0,.635.635h2.885a.636.636,0,0,0,.635-.635v-7.79A1.215,1.215,0,0,0,100.84,163.44Zm-1.673,8.366v-7.1h1.615v7.1Z" transform="translate(-2.359 -3.718)"/><path class="a" d="M108.507,165.94h-1.732a1.216,1.216,0,0,0-1.212,1.212v6.059a.636.636,0,0,0,.635.635h2.885a.636.636,0,0,0,.635-.635v-6.059A1.215,1.215,0,0,0,108.507,165.94Zm-1.673,6.636V167.21h1.616v5.366Z" transform="translate(-4.717 -4.487)"/><path class="a" d="M116.175,162.606h-1.732a1.215,1.215,0,0,0-1.211,1.212v8.366a.636.636,0,0,0,.635.635h2.885a.636.636,0,0,0,.634-.635v-8.367A1.215,1.215,0,0,0,116.175,162.606ZM114.5,171.55v-7.674h1.616v7.674Z" transform="translate(-7.076 -3.462)"/><path class="a" d="M93.3,160.989a2.072,2.072,0,0,0,1.761-3.177l2.069-2.459a2.072,2.072,0,0,0,1.988-.227l1.454,1.09a2.077,2.077,0,1,0,3.976.168l1.264-.789a2.076,2.076,0,1,0,1.34-3.663h0a2.076,2.076,0,0,0-2.013,2.587l-1.264.79a2.07,2.07,0,0,0-2.539-.108l-1.455-1.09a2.077,2.077,0,1,0-3.721.424l-2.069,2.461a2.092,2.092,0,0,0-2.483.722,2.071,2.071,0,0,0,1.694,3.272Zm4.617-6.749a.808.808,0,1,1,.808-.808A.808.808,0,0,1,97.921,154.24Zm-3.808,4.674a.808.808,0,1,1-.808-.808A.811.811,0,0,1,94.113,158.914Zm8.424-1.212a.808.808,0,1,1,.809-.808A.809.809,0,0,1,102.537,157.7Zm4.617-4.5a.808.808,0,1,1-.808.808A.809.809,0,0,1,107.154,153.2Z" transform="translate(-0.306)"/></g></svg>