<svg xmlns="http://www.w3.org/2000/svg" width="23.818" height="23.818" viewBox="0 0 23.818 23.818"><defs><style>.a{fill:#8395a7;}</style></defs><g transform="translate(-138.257 -370.363)"><g transform="translate(138.257 370.363)"><path class="a" d="M150.315,387.039a1.3,1.3,0,0,0,0,2.608,1.3,1.3,0,1,0,0-2.608Z" transform="translate(-138.769 -371.156)"/><path class="a" d="M150.535,377.165c-2.286,0-3.336,1.355-3.336,2.27a.971.971,0,0,0,1.016.965c.914,0,.542-1.3,2.269-1.3.847,0,1.524.373,1.524,1.152,0,.914-.948,1.439-1.507,1.914a3.1,3.1,0,0,0-1.135,2.574c0,.881.237,1.135.932,1.135.83,0,1-.373,1-.7a2.128,2.128,0,0,1,.948-2.117,4.331,4.331,0,0,0,1.9-3.1C154.142,378.368,152.7,377.165,150.535,377.165Z" transform="translate(-138.785 -370.808)"/><path class="a" d="M150.167,370.363a11.9,11.9,0,0,0-11.91,11.909v10.979a.93.93,0,0,0,.931.931h10.979a11.909,11.909,0,0,0,0-23.818Zm0,21.957H140.118V382.272a10.048,10.048,0,1,1,10.048,10.048Z" transform="translate(-138.257 -370.363)"/></g></g></svg>