<svg xmlns="http://www.w3.org/2000/svg" width="19.6" height="19.6" viewBox="0 0 19.6 19.6"><defs><style>.a{fill:#8395a7;}</style></defs><g transform="translate(0 0)"><path class="a" d="M19.577,1.463a1.524,1.524,0,0,0-1.44-1.44,15.13,15.13,0,0,0-7.585,1.518A14.89,14.89,0,0,0,6.2,5.147L6.158,5.2l-2.87.222A1.515,1.515,0,0,0,2.133,6.1L.174,9.066a1.05,1.05,0,0,0,.715,1.616l2.418.375c-.009.047-.017.094-.025.141a1.523,1.523,0,0,0,.427,1.325l3.368,3.369a1.526,1.526,0,0,0,1.077.447,1.5,1.5,0,0,0,.247-.021l.141-.025.375,2.418a1.049,1.049,0,0,0,1.616.715L13.5,17.467a1.515,1.515,0,0,0,.679-1.155l.222-2.87.056-.046a14.889,14.889,0,0,0,3.606-4.348,15.131,15.131,0,0,0,1.518-7.585ZM12.863,16.509l-2.833,1.873-.365-2.357a12.864,12.864,0,0,0,3.51-1.671l-.144,1.87a.374.374,0,0,1-.168.285ZM7.89,15.079,4.521,11.71a.372.372,0,0,1-.106-.323,9.878,9.878,0,0,1,.448-1.706l5.054,5.054a9.92,9.92,0,0,1-1.7.449A.372.372,0,0,1,7.89,15.079ZM3.376,6.57l1.87-.144a12.863,12.863,0,0,0-1.671,3.51L1.217,9.571,3.091,6.737A.374.374,0,0,1,3.376,6.57Zm10.342,5.945a13.166,13.166,0,0,1-2.658,1.738L5.347,8.54A13.393,13.393,0,0,1,7.086,5.882,13.7,13.7,0,0,1,11.08,2.561,13.968,13.968,0,0,1,18.074,1.17a.377.377,0,0,1,.356.356A13.967,13.967,0,0,1,17.039,8.52a13.7,13.7,0,0,1-3.321,3.994Z" transform="translate(0 0)"/><path class="a" d="M278.594,92.058a2.869,2.869,0,1,0-2.03-.84A2.863,2.863,0,0,0,278.594,92.058Zm-1.218-4.088a1.723,1.723,0,1,1-.5,1.218A1.717,1.717,0,0,1,277.376,87.97Z" transform="translate(-265.168 -83.014)"/><path class="a" d="M.876,345.988a.572.572,0,0,0,.406-.168l1.875-1.875a.574.574,0,0,0-.812-.812L.47,345.007a.574.574,0,0,0,.406.98Z" transform="translate(-0.29 -329.835)"/><path class="a" d="M4.585,388.014a.574.574,0,0,0-.812,0l-3.6,3.6a.574.574,0,1,0,.812.812l3.6-3.6a.574.574,0,0,0,0-.812Z" transform="translate(-0.001 -372.998)"/><path class="a" d="M92.105,432.895l-1.875,1.875a.574.574,0,0,0,.812.812l1.875-1.875a.574.574,0,1,0-.812-.812Z" transform="translate(-86.615 -416.161)"/></g></svg>