<svg xmlns="http://www.w3.org/2000/svg" width="35" height="25.309" viewBox="0 0 35 25.309"><defs><style>.a{fill:#8395a7;}.b{fill:#54a0ff;}</style></defs><g transform="translate(-827 -16.809)"><g transform="translate(577.418 -508.93)"><path class="a" d="M275.249,549.31c-2.115.016-4.228.013-6.344.011l-2.744,0-.135-.378.2-.169a1.77,1.77,0,0,0,.154-.131l1.552-1.559q3.364-3.379,6.724-6.761a3.021,3.021,0,0,0,.013-4.349q-3.8-3.817-7.618-7.618a3.027,3.027,0,0,0-4.364.01q-6.071,6.067-12.137,12.137a3.023,3.023,0,0,0,.023,4.463q1.23,1.209,2.464,2.414l1.315,1.287c.049.049.1.1.152.158l.472.5h-1.63l-.637,0c-.345,0-.692,0-1.037.008a.838.838,0,0,0-.824.758.823.823,0,0,0,.577.9,1.594,1.594,0,0,0,.449.05l7.527,0q7.946,0,15.892.01h0a1.032,1.032,0,0,0,1.137-.675v-.411A1.08,1.08,0,0,0,275.249,549.31ZM263.773,529.8l-1.11,5.7c-.24,1.217-.479,2.435-.7,3.656a.719.719,0,0,1-.65.656q-3.288.627-6.57,1.273l-1.989.389a.378.378,0,0,1-.079.007.427.427,0,0,1-.058,0l-.465-.054Zm-.852,19.523h-.005c-1.7-.01-3.4,0-5.1-.012a.829.829,0,0,1-.543-.2q-2.223-2.161-4.435-4.335l-.864-.846c-.027-.027-.052-.055-.086-.092l-.337-.369,11.152-2.185a.847.847,0,0,0,.724-.741q.65-3.321,1.294-6.643l.763-3.916a1.348,1.348,0,0,1,.045-.159l.141-.444.556.566c.169.174.333.341.5.506l6.623,6.624a1.338,1.338,0,0,1,.01,2.112l-2.288,2.3q-3.761,3.78-7.52,7.565A.833.833,0,0,1,262.921,549.324Z"/><path class="a" d="M253,542.973a.469.469,0,0,1-.064,0l-.514-.06.514.06A.469.469,0,0,0,253,542.973Z" transform="translate(0 -1.485)"/></g><path class="b" d="M8,0A8,8,0,1,1,0,8,8,8,0,0,1,8,0Z" transform="translate(846 16.809)"/></g></svg>