<svg xmlns="http://www.w3.org/2000/svg" width="25.318" height="25.541" viewBox="0 0 25.318 25.541"><defs><style>.a{fill:#10ac84;}.b{fill:#8395a7;}.c{fill:#fefefe;font-size:11px;font-family:Poppins-Regular, Poppins;}</style></defs><path class="a" d="M8,0A8,8,0,1,1,0,8,8,8,0,0,1,8,0Z" transform="translate(9.318)"/><path class="b" d="M324.743,545.561a.574.574,0,0,0-.082-.061,7.056,7.056,0,0,1-1.741-2.3.924.924,0,0,0-1.226-.44.921.921,0,0,0-.439,1.227,8.863,8.863,0,0,0,2.28,2.975.092.092,0,0,0,.032.022.137.137,0,0,1,.031.092.153.153,0,0,1-.15.15H305.77a.155.155,0,0,1-.152-.15.147.147,0,0,1,.025-.082l.039-.031a8.93,8.93,0,0,0,3.152-6.809v-2.989a5.734,5.734,0,0,1,4.423-5.607.923.923,0,0,0,.685-1.108.935.935,0,0,0-1.109-.687,7.572,7.572,0,0,0-5.842,7.4v2.989a7.09,7.09,0,0,1-2.419,5.333.807.807,0,0,0-.1.074,1.992,1.992,0,0,0,1.3,3.507h4.807a4.135,4.135,0,0,0,8.063,0h4.807a1.991,1.991,0,0,0,1.3-3.506Zm-10.134,4.878a2.293,2.293,0,0,1-2.088-1.372H316.7A2.3,2.3,0,0,1,314.608,550.439Z" transform="translate(-303.776 -526.74)"/><g transform="translate(9.318)"><text class="c" transform="translate(5 12)"><tspan x="0" y="0">3</tspan></text></g></svg>