<svg xmlns="http://www.w3.org/2000/svg" width="16.051" height="21.06" viewBox="0 0 16.051 21.06"><defs><style>.a{isolation:isolate;}.b{fill:#222f3e;}</style></defs><g class="a" transform="translate(-274.584 -297.417)"><g class="a"><path class="b" d="M289.794,307.542a6.165,6.165,0,0,1-2.579,2.444,9.085,9.085,0,0,1-4.32.931h-3.18v7.56h-5.131v-21.06h8.311a9.47,9.47,0,0,1,4.26.869,6,6,0,0,1,2.61,2.4,6.985,6.985,0,0,1,.87,3.509A6.783,6.783,0,0,1,289.794,307.542Zm-5.1-1.4a3,3,0,0,0,0-3.9,3.067,3.067,0,0,0-2.191-.689h-2.789v5.28H282.5A3.063,3.063,0,0,0,284.7,306.146Z"/></g></g></svg>