<svg xmlns="http://www.w3.org/2000/svg" width="22" height="19" viewBox="0 0 22 19"><defs><style>.a{fill:#8395a7;stroke:#8395a7;}</style></defs><g transform="translate(0.5 0.5)"><path class="a" d="M23.25,7.5H20.175a3.751,3.751,0,0,0-7.351,0H2.25V9H12.825a3.751,3.751,0,0,0,7.351,0H23.25Zm-6.75,3a2.25,2.25,0,1,1,2.25-2.25A2.21,2.21,0,0,1,16.5,10.5Z" transform="translate(-2.25 -4.5)"/><path class="a" d="M2.25,24.75H5.325a3.751,3.751,0,0,0,7.351,0H23.25v-1.5H12.675a3.751,3.751,0,0,0-7.351,0H2.25Zm6.75-3A2.25,2.25,0,1,1,6.75,24,2.21,2.21,0,0,1,9,21.75Z" transform="translate(-2.25 -9.75)"/></g></svg>